<svg width="100" height="90" viewBox="0 0 100 90" fill="none" xmlns="http://www.w3.org/2000/svg">
<path d="M60.9296 43.3151L51.1005 51.9802L9.59383 88.5661C8.50416 89.5289 7.10629 90.0103 5.70843 90.0103C4.17848 90.0103 2.64853 89.4367 1.53684 88.2998C-0.653513 86.0669 -0.367335 82.5743 2.15323 80.6692L51.1005 43.8272L56.4939 39.7712L60.9296 43.3151Z" fill="url(#paint0_linear)"/>
<path d="M50.6713 52.4206L40.9963 60.9423L40.1048 52.185L45.399 48.2007L50.6713 52.4206Z" fill="#3A81D6" fill-opacity="0.8"/>
<path d="M99.6516 29.9078C99.6516 46.4288 85.2547 59.8259 67.5117 59.8259C56.3288 59.8259 46.4777 54.5101 40.7211 46.4391C37.342 41.7071 35.3718 36.0225 35.3718 29.9078C35.3718 13.3868 49.7687 0 67.5117 0C75.5247 0 82.8442 2.72448 88.4687 7.23114C95.3149 12.7211 99.6516 20.8433 99.6516 29.9078Z" fill="url(#paint1_linear)"/>
<path d="M67.5117 53.2093C81.3412 53.2093 92.5522 42.7769 92.5522 29.9078C92.5522 17.0388 81.3412 6.60635 67.5117 6.60635C53.6822 6.60635 42.4712 17.0388 42.4712 29.9078C42.4712 42.7769 53.6822 53.2093 67.5117 53.2093Z" fill="white"/>
<path opacity="0.06" d="M99.6516 29.9078C99.6516 46.4288 85.2547 59.8259 67.5117 59.8259C56.3288 59.8259 46.4777 54.5101 40.7211 46.4391C76.9666 43.6941 86.5205 15.1178 88.4797 7.23114C95.3149 12.7211 99.6516 20.8433 99.6516 29.9078Z" fill="#1A6FB5" fill-opacity="0.5"/>
<defs>
<linearGradient id="paint0_linear" x1="6.20625" y1="84.3265" x2="54.6981" y2="36.953" gradientUnits="userSpaceOnUse">
<stop stop-color="#67C3F3"/>
<stop offset="1" stop-color="#5A98F2"/>
</linearGradient>
<linearGradient id="paint1_linear" x1="54.2185" y1="2.11336" x2="75.7731" y2="54.1859" gradientUnits="userSpaceOnUse">
<stop stop-color="#67C3F3"/>
<stop offset="1" stop-color="#5A98F2"/>
</linearGradient>
</defs>
</svg>
